<svg width="20" height="20" viewBox="0 0 20 20" fill="none" xmlns="http://www.w3.org/2000/svg">
<path d="M2.22222 3.8889C1.91667 3.8889 1.66667 4.1389 1.66667 4.44445V15.5556C1.66667 15.8611 1.91667 16.1111 2.22222 16.1111H17.7778C18.0833 16.1111 18.3333 15.8611 18.3333 15.5556V4.44445C18.3333 4.1389 18.0833 3.8889 17.7778 3.8889H2.22222ZM0 4.44445C0 3.21876 0.996528 2.22223 2.22222 2.22223H17.7778C19.0035 2.22223 20 3.21876 20 4.44445V15.5556C20 16.7813 19.0035 17.7778 17.7778 17.7778H2.22222C0.996528 17.7778 0 16.7813 0 15.5556V4.44445ZM3.33333 13.6111C3.33333 13.1493 3.70486 12.7778 4.16667 12.7778H5.83333C6.29514 12.7778 6.66667 13.1493 6.66667 13.6111C6.66667 14.0729 6.29514 14.4445 5.83333 14.4445H4.16667C3.70486 14.4445 3.33333 14.0729 3.33333 13.6111ZM7.77778 13.6111C7.77778 13.1493 8.14931 12.7778 8.61111 12.7778H12.5C12.9618 12.7778 13.3333 13.1493 13.3333 13.6111C13.3333 14.0729 12.9618 14.4445 12.5 14.4445H8.61111C8.14931 14.4445 7.77778 14.0729 7.77778 13.6111Z" fill="#32343D"/>
</svg>
