<svg width="20" height="20" viewBox="0 0 20 20" fill="none" xmlns="http://www.w3.org/2000/svg">
<path d="M10.625 3.125V16.875H9.375V3.125H10.625ZM9.375 1.25C8.33984 1.25 7.5 2.08984 7.5 3.125V16.875C7.5 17.9102 8.33984 18.75 9.375 18.75H10.625C11.6602 18.75 12.5 17.9102 12.5 16.875V3.125C12.5 2.08984 11.6602 1.25 10.625 1.25H9.375ZM4.375 10.625V16.875H3.125V10.625H4.375ZM3.125 8.75C2.08984 8.75 1.25 9.58984 1.25 10.625V16.875C1.25 17.9102 2.08984 18.75 3.125 18.75H4.375C5.41016 18.75 6.25 17.9102 6.25 16.875V10.625C6.25 9.58984 5.41016 8.75 4.375 8.75H3.125ZM15.625 5.625H16.875V16.875H15.625V5.625ZM13.75 5.625V16.875C13.75 17.9102 14.5898 18.75 15.625 18.75H16.875C17.9102 18.75 18.75 17.9102 18.75 16.875V5.625C18.75 4.58984 17.9102 3.75 16.875 3.75H15.625C14.5898 3.75 13.75 4.58984 13.75 5.625Z" fill="#8A8E97"/>
</svg>
