<svg width="17" height="16" viewBox="0 0 17 16" fill="none" xmlns="http://www.w3.org/2000/svg">
<path d="M8.8625 0.09375C8.6375 -0.03125 8.3625 -0.03125 8.1375 0.09375L1.05 4.00313C0.709375 4.19063 0.5 4.54688 0.5 4.93437C0.5 5.525 0.975 6 1.56562 6H15.4344C16.0219 6 16.5 5.525 16.5 4.93437C16.5 4.54688 16.2906 4.19063 15.95 4.00313L8.8625 0.09375ZM7.63438 4.5H3.25625L8.5 1.60625L13.7437 4.5H9.36563C9.45 4.35313 9.5 4.18125 9.5 4C9.5 3.44688 9.05313 3 8.5 3C7.94688 3 7.5 3.44688 7.5 4C7.5 4.18125 7.55 4.35313 7.63438 4.5ZM2.5 7V12C2.08438 12 1.75 12.3344 1.75 12.75C1.75 13.1656 2.08438 13.5 2.5 13.5H14.75C15.1656 13.5 15.5 13.1656 15.5 12.75C15.5 12.3344 15.1656 12 14.75 12H14.5V7H13V12H11V7H9.5V12H7.5V7H6V12H4V7H2.5ZM1.5 14.5C1.08438 14.5 0.75 14.8344 0.75 15.25C0.75 15.6656 1.08438 16 1.5 16H15.75C16.1656 16 16.5 15.6656 16.5 15.25C16.5 14.8344 16.1656 14.5 15.75 14.5H1.5Z" fill="#32343D"/>
</svg>
