<svg width="16" height="16" viewBox="0 0 16 16" fill="none" xmlns="http://www.w3.org/2000/svg">
<path d="M8.54375 14.7687C8.4 14.9156 8.20625 15 8 15C7.79375 15 7.6 14.9156 7.45625 14.7687L2.20625 9.26875C1.91875 8.96875 1.93125 8.49375 2.23125 8.20937C2.53125 7.925 3.00625 7.93437 3.29063 8.23438L7.25 12.3781V1.75C7.25 1.33438 7.58438 1 8 1C8.41563 1 8.75 1.33438 8.75 1.75V12.3781L12.7063 8.23125C12.9938 7.93125 13.4656 7.92188 13.7656 8.20625C14.0656 8.49063 14.075 8.96562 13.7906 9.26562L8.54063 14.7656L8.54375 14.7687Z" fill="#32343D"/>
</svg>
