<svg width="20" height="20" viewBox="0 0 20 20" fill="none" xmlns="http://www.w3.org/2000/svg">
<g clip-path="url(#clip0_159_6586)">
<path d="M9.99999 0C10.6641 0 11.3125 0.0664063 11.9453 0.1875C12.2539 0.246094 12.7969 0.425781 13.0937 0.972656C13.1719 1.11719 13.2344 1.26953 13.2734 1.43359L13.6367 2.9375C13.6914 3.16406 14.0742 3.38672 14.2969 3.32031L15.7812 2.88281C15.9375 2.83594 16.0976 2.8125 16.2578 2.80859C16.8867 2.78906 17.3125 3.17578 17.5195 3.41016C18.3828 4.39062 19.0469 5.54297 19.4687 6.78125C19.5703 7.07812 19.6875 7.63281 19.3633 8.16406C19.2773 8.30469 19.1719 8.4375 19.0508 8.55469L17.9297 9.62109C17.7656 9.77734 17.7656 10.2266 17.9297 10.3828L19.0508 11.4492C19.1719 11.5664 19.2773 11.6992 19.3633 11.8398C19.6836 12.3711 19.5664 12.9258 19.4687 13.2227C19.0469 14.4609 18.3828 15.6094 17.5195 16.5938C17.3125 16.8281 16.8828 17.2148 16.2578 17.1953C16.0976 17.1914 15.9375 17.1641 15.7812 17.1211L14.2969 16.6797C14.0742 16.6133 13.6914 16.8359 13.6367 17.0625L13.2734 18.5664C13.2344 18.7305 13.1719 18.8867 13.0937 19.0273C12.793 19.5742 12.25 19.75 11.9453 19.8125C11.3125 19.9336 10.6641 20 9.99999 20C9.33593 20 8.68749 19.9336 8.05468 19.8125C7.74609 19.7539 7.20312 19.5742 6.90624 19.0273C6.82812 18.8828 6.76562 18.7305 6.72655 18.5664L6.36327 17.0625C6.30859 16.8359 5.92577 16.6133 5.70312 16.6797L4.21874 17.1172C4.06249 17.1641 3.90234 17.1875 3.74218 17.1914C3.11327 17.2109 2.68749 16.8242 2.48046 16.5898C1.62109 15.6094 0.953118 14.457 0.531243 13.2188C0.42968 12.9219 0.312493 12.3672 0.636712 11.8359C0.722649 11.6953 0.828118 11.5625 0.949211 11.4453L2.0703 10.3789C2.23437 10.2227 2.23437 9.77344 2.0703 9.61719L0.945305 8.55078C0.824212 8.43359 0.718743 8.30078 0.632805 8.16016C0.312493 7.62891 0.42968 7.07422 0.531243 6.78125C0.953118 5.54297 1.61718 4.39453 2.48046 3.41016C2.68749 3.17578 3.11718 2.78906 3.74218 2.80859C3.90234 2.8125 4.06249 2.83984 4.21874 2.88281L5.70312 3.32031C5.92577 3.38672 6.30859 3.16406 6.36327 2.9375L6.72655 1.43359C6.76562 1.26953 6.82812 1.11328 6.90624 0.972656C7.20702 0.425781 7.74999 0.25 8.05468 0.1875C8.68749 0.0664063 9.33593 0 9.99999 0ZM8.51952 2.00781L8.18749 3.37891C7.8828 4.64062 6.41796 5.48438 5.17187 5.12109L3.82421 4.72266C3.17968 5.47656 2.67187 6.35156 2.33984 7.28906L3.36327 8.26172C4.30077 9.15234 4.30077 10.8477 3.36327 11.7383L2.33984 12.7109C2.67187 13.6484 3.17968 14.5234 3.82421 15.2773L5.17577 14.8789C6.41796 14.5117 7.88671 15.3594 8.1914 16.6211L8.52343 17.9922C9.48437 18.168 10.5273 18.168 11.4883 17.9922L11.8203 16.6211C12.125 15.3594 13.5898 14.5156 14.8359 14.8789L16.1875 15.2773C16.832 14.5234 17.3398 13.6484 17.6719 12.7109L16.6484 11.7383C15.7109 10.8477 15.7109 9.15234 16.6484 8.26172L17.6719 7.28906C17.3398 6.35156 16.832 5.47656 16.1875 4.72266L14.8359 5.12109C13.5937 5.48828 12.125 4.64062 11.8203 3.37891L11.4883 2.00781C10.5273 1.83203 9.48437 1.83203 8.52343 2.00781H8.51952ZM8.12499 10C8.12499 10.4973 8.32254 10.9742 8.67417 11.3258C9.0258 11.6775 9.50271 11.875 9.99999 11.875C10.4973 11.875 10.9742 11.6775 11.3258 11.3258C11.6774 10.9742 11.875 10.4973 11.875 10C11.875 9.50272 11.6774 9.02581 11.3258 8.67417C10.9742 8.32254 10.4973 8.125 9.99999 8.125C9.50271 8.125 9.0258 8.32254 8.67417 8.67417C8.32254 9.02581 8.12499 9.50272 8.12499 10ZM9.99999 13.75C9.00543 13.75 8.0516 13.3549 7.34834 12.6517C6.64508 11.9484 6.24999 10.9946 6.24999 10C6.24999 9.00544 6.64508 8.05161 7.34834 7.34835C8.0516 6.64509 9.00543 6.25 9.99999 6.25C10.9946 6.25 11.9484 6.64509 12.6516 7.34835C13.3549 8.05161 13.75 9.00544 13.75 10C13.75 10.9946 13.3549 11.9484 12.6516 12.6517C11.9484 13.3549 10.9946 13.75 9.99999 13.75Z" fill="#8A8E97"/>
</g>
<defs>
<clipPath id="clip0_159_6586">
<rect width="20" height="20" fill="white"/>
</clipPath>
</defs>
</svg>
