<svg width="14" height="15" viewBox="0 0 14 15" fill="none" xmlns="http://www.w3.org/2000/svg">
<path d="M7.65625 2.46875C7.65625 2.10508 7.36367 1.8125 7 1.8125C6.63633 1.8125 6.34375 2.10508 6.34375 2.46875V6.84375H1.96875C1.60508 6.84375 1.3125 7.13633 1.3125 7.5C1.3125 7.86367 1.60508 8.15625 1.96875 8.15625H6.34375V12.5312C6.34375 12.8949 6.63633 13.1875 7 13.1875C7.36367 13.1875 7.65625 12.8949 7.65625 12.5312V8.15625H12.0312C12.3949 8.15625 12.6875 7.86367 12.6875 7.5C12.6875 7.13633 12.3949 6.84375 12.0312 6.84375H7.65625V2.46875Z" fill="#0F1017"/>
</svg>
