<svg width="20" height="20" viewBox="0 0 20 20" fill="none" xmlns="http://www.w3.org/2000/svg">
<path d="M10.9375 2.8125C10.9375 2.29297 10.5195 1.875 10 1.875C9.48047 1.875 9.0625 2.29297 9.0625 2.8125V9.0625H2.8125C2.29297 9.0625 1.875 9.48047 1.875 10C1.875 10.5195 2.29297 10.9375 2.8125 10.9375H9.0625V17.1875C9.0625 17.707 9.48047 18.125 10 18.125C10.5195 18.125 10.9375 17.707 10.9375 17.1875V10.9375H17.1875C17.707 10.9375 18.125 10.5195 18.125 10C18.125 9.48047 17.707 9.0625 17.1875 9.0625H10.9375V2.8125Z" fill="#32343D"/>
</svg>
