<svg width="20" height="18" viewBox="0 0 20 18" fill="none" xmlns="http://www.w3.org/2000/svg">
<path d="M3.67188 6.30859C4.71875 3.84766 7.16016 2.125 10 2.125C11.5508 2.125 13.0391 2.74219 14.1367 3.83984L16.1758 5.875H14.0625C13.543 5.875 13.125 6.29297 13.125 6.8125C13.125 7.33203 13.543 7.75 14.0625 7.75H18.4375C18.957 7.75 19.375 7.33203 19.375 6.8125V2.4375C19.375 1.91797 18.957 1.5 18.4375 1.5C17.918 1.5 17.5 1.91797 17.5 2.4375V4.55078L15.4648 2.51172C14.0156 1.0625 12.0508 0.25 10 0.25C6.38281 0.25 3.27734 2.44531 1.94531 5.57422C1.74219 6.05078 1.96484 6.60156 2.44141 6.80469C2.91797 7.00781 3.46875 6.78516 3.67188 6.30859ZM18.0469 12.4414C18.25 11.9648 18.0312 11.4141 17.5547 11.2109C17.0781 11.0078 16.5273 11.2266 16.3242 11.7031C15.2734 14.1602 12.8359 15.875 10 15.875C8.44922 15.875 6.96094 15.2578 5.86328 14.1602L3.82422 12.125H5.9375C6.45703 12.125 6.875 11.707 6.875 11.1875C6.875 10.668 6.45703 10.25 5.9375 10.25H1.5625C1.04297 10.25 0.625 10.668 0.625 11.1875V15.5625C0.625 16.082 1.04297 16.5 1.5625 16.5C2.08203 16.5 2.5 16.082 2.5 15.5625V13.4492L4.53516 15.4844C5.98438 16.9375 7.94922 17.75 10 17.75C13.6133 17.75 16.7109 15.5625 18.0469 12.4414Z" fill="#32343D"/>
</svg>
