<svg width="17" height="16" viewBox="0 0 17 16" fill="none" xmlns="http://www.w3.org/2000/svg">
<g clip-path="url(#clip0_159_6205)">
<path d="M9.5 7.50002H6.5C4.43125 7.50002 2.6875 8.89689 2.1625 10.7969C2.05938 10.4094 2 9.97814 2 9.50002C2 7.29064 3.79063 5.50002 6 5.50002H9.5H10.25C10.6656 5.50002 11 5.16564 11 4.75002V4.00002V3.12189L14.7531 6.50002L11 9.87814V9.00002V8.25002C11 7.83439 10.6656 7.50002 10.25 7.50002H9.5ZM9.5 9.00002V10.5V11C9.5 11.3938 9.73125 11.7531 10.0938 11.9125C10.4563 12.0719 10.875 12.0063 11.1687 11.7438L16.1687 7.24377C16.3781 7.05314 16.5 6.78439 16.5 6.50002C16.5 6.21564 16.3812 5.94689 16.1687 5.75627L11.1687 1.25627C10.875 0.990644 10.4531 0.925019 10.0938 1.08752C9.73438 1.25002 9.5 1.60627 9.5 2.00002V2.50002V4.00002H8H6C2.9625 4.00002 0.5 6.46252 0.5 9.50002C0.5 11.9375 1.70625 13.4438 2.64687 14.2531C2.775 14.3625 2.9 14.4594 3.0125 14.5438C3.1125 14.6188 3.20625 14.6813 3.29063 14.7375C3.43125 14.8313 3.55 14.8969 3.62812 14.9406C3.70625 14.9844 3.79375 15 3.88125 15C4.22187 15 4.49688 14.7219 4.49688 14.3844C4.49688 14.1719 4.38437 13.9719 4.2375 13.8188C4.22187 13.8031 4.20937 13.7906 4.19375 13.775C4.11875 13.7031 4.03437 13.6156 3.95312 13.5063C3.9 13.4344 3.84687 13.35 3.79688 13.2594C3.63125 12.9563 3.5 12.5438 3.5 12.0031C3.5 10.3469 4.84375 9.00314 6.5 9.00314H8H9.5V9.00002Z" fill="#0F170F"/>
</g>
<defs>
<clipPath id="clip0_159_6205">
<rect width="16" height="16" fill="white" transform="translate(0.5)"/>
</clipPath>
</defs>
</svg>
