<svg width="20" height="20" viewBox="0 0 20 20" fill="none" xmlns="http://www.w3.org/2000/svg">
<path d="M10.625 0.625C10.625 0.28125 10.3438 0 10 0C9.65627 0 9.37502 0.28125 9.37502 0.625V3.49219L7.94143 2.05859C7.69924 1.81641 7.3008 1.81641 7.05862 2.05859C6.81643 2.30078 6.81643 2.69922 7.05862 2.94141L9.37502 5.25781V8.91797L6.20705 7.08984L5.3594 3.92578C5.26955 3.59375 4.9258 3.39453 4.59377 3.48438C4.26174 3.57422 4.06252 3.91406 4.15237 4.24609L4.6758 6.20312L2.19534 4.76953C1.89455 4.59766 1.51565 4.69922 1.33987 5C1.16409 5.30078 1.26955 5.67969 1.57034 5.85547L4.0508 7.28906L2.09377 7.8125C1.75784 7.90234 1.56252 8.24219 1.65237 8.57812C1.74221 8.91406 2.08596 9.10938 2.41799 9.01953L5.58205 8.17188L8.75002 10L5.58205 11.8281L2.41799 10.9805C2.08596 10.8906 1.74221 11.0898 1.65237 11.4219C1.56252 11.7539 1.75784 12.0977 2.09377 12.1875L4.0508 12.7109L1.57034 14.1445C1.26955 14.3203 1.16799 14.6992 1.33987 15C1.51174 15.3008 1.89455 15.4023 2.19534 15.2305L4.6758 13.7969L4.15237 15.7539C4.06252 16.0859 4.26174 16.4297 4.59377 16.5195C4.9258 16.6094 5.26955 16.4102 5.3594 16.0781L6.20705 12.9141L9.37502 11.082V14.7422L7.05862 17.0586C6.81643 17.3008 6.81643 17.6992 7.05862 17.9414C7.3008 18.1836 7.69924 18.1836 7.94143 17.9414L9.37502 16.5078V19.375C9.37502 19.7188 9.65627 20 10 20C10.3438 20 10.625 19.7188 10.625 19.375V16.5078L12.0586 17.9414C12.3008 18.1836 12.6992 18.1836 12.9414 17.9414C13.1836 17.6992 13.1836 17.3008 12.9414 17.0586L10.625 14.7422V11.082L13.793 12.9102L14.6406 16.0742C14.7305 16.4062 15.0742 16.6055 15.4063 16.5156C15.7383 16.4258 15.9375 16.082 15.8477 15.75L15.3242 13.793L17.8047 15.2266C18.1055 15.3984 18.4844 15.2969 18.6602 14.9961C18.836 14.6953 18.7305 14.3164 18.4297 14.1406L15.9492 12.707L17.9063 12.1875C18.2383 12.0977 18.4375 11.7539 18.3477 11.4219C18.2578 11.0898 17.9141 10.8906 17.5821 10.9805L14.418 11.8281L11.25 10L14.418 8.17188L17.5821 9.01953C17.9141 9.10938 18.2578 8.91016 18.3477 8.57812C18.4375 8.24609 18.2383 7.90234 17.9063 7.8125L15.9492 7.28906L18.4297 5.85547C18.7305 5.68359 18.8321 5.30078 18.6602 5C18.4883 4.69922 18.1055 4.59766 17.8047 4.76953L15.3242 6.20312L15.8477 4.24609C15.9375 3.91406 15.7383 3.57031 15.4063 3.48047C15.0742 3.39062 14.7305 3.58984 14.6406 3.92188L13.793 7.08594L10.625 8.91797V5.25781L12.9414 2.94141C13.1836 2.69922 13.1836 2.30078 12.9414 2.05859C12.6992 1.81641 12.3008 1.81641 12.0586 2.05859L10.625 3.49219V0.625Z" fill="#32343D"/>
</svg>
