<svg width="16" height="16" viewBox="0 0 16 16" fill="none" xmlns="http://www.w3.org/2000/svg">
<g clip-path="url(#clip0_159_7008)">
<path d="M14.0861 4.48614C14.2472 4.74169 14.2639 5.05558 14.15 5.32225C14.0416 5.57781 13.8416 5.73336 13.5916 5.76669C13.5361 5.77503 13.4833 5.7778 13.4305 5.7778C13.1055 5.7778 12.8139 5.63614 12.6055 5.41114C12.3527 5.13336 11.9944 4.97503 11.6166 4.97503C11.2389 4.97503 10.8805 5.13614 10.6305 5.41392C10.4277 5.63892 10.1389 5.78058 9.8083 5.78058C9.48052 5.78058 9.18886 5.63892 8.98608 5.41392C8.7333 5.13336 8.37497 4.97503 7.99719 4.97503C7.61941 4.97503 7.26108 5.13336 7.0083 5.41392C6.80552 5.63892 6.51663 5.78058 6.18608 5.78058C5.8583 5.78058 5.56663 5.63892 5.36385 5.41392C5.11108 5.13336 4.75274 4.97503 4.37497 4.97503C3.99719 4.97503 3.63885 5.13336 3.38608 5.41392C3.1833 5.63892 2.89441 5.78058 2.56385 5.78058C2.51385 5.78058 2.4583 5.7778 2.40274 5.76947C2.15552 5.73614 1.9583 5.58058 1.84997 5.32503C1.73608 5.05836 1.75274 4.74447 1.91385 4.48892L3.34441 2.22225H12.6555L14.0861 4.48614ZM13.4305 7.11114C13.5444 7.11114 13.6555 7.1028 13.7639 7.08892C15.3055 6.88336 16.0361 5.07503 15.2111 3.77225L13.6194 1.2528C13.4777 1.0278 13.225 0.888916 12.9555 0.888916H3.04441C2.77497 0.888916 2.52219 1.0278 2.38052 1.2528L0.786077 3.77225C-0.0361454 5.07225 0.691632 6.88058 2.22774 7.08892C2.33885 7.1028 2.45274 7.11114 2.56385 7.11114C3.1083 7.11114 3.60552 6.93336 4.00552 6.63892C4.13885 6.54169 4.26108 6.4278 4.37219 6.30836C4.4833 6.43058 4.60552 6.54169 4.73885 6.63892C5.14163 6.93336 5.63885 7.11114 6.1833 7.11114C6.72774 7.11114 7.22497 6.93336 7.62774 6.63892C7.76108 6.54169 7.8833 6.4278 7.99441 6.30558C8.10552 6.4278 8.22774 6.53892 8.36108 6.63614C8.76385 6.93058 9.26108 7.10836 9.80552 7.10836C10.3555 7.10836 10.8555 6.9278 11.2583 6.62781C11.3889 6.53058 11.5083 6.42225 11.6166 6.3028C11.725 6.42225 11.8472 6.53336 11.9777 6.63058C12.3805 6.9278 12.8805 7.10836 13.4277 7.10836L13.4305 7.11114ZM3.11108 10.2222V7.95558C2.9333 7.98614 2.75274 8.00003 2.56663 8.00003C2.41385 8.00003 2.26108 7.98892 2.11385 7.96947H2.11108C1.99719 7.9528 1.88608 7.93336 1.77774 7.90558V10.2222V11.5556V13.3334C1.77774 14.3139 2.57497 15.1111 3.55552 15.1111H12.4444C13.425 15.1111 14.2222 14.3139 14.2222 13.3334V11.5556V10.2222V7.90558C14.1111 7.93336 14 7.95558 13.8805 7.96947H13.8777C13.7305 7.98892 13.5805 8.00003 13.4277 8.00003C13.2444 8.00003 13.0639 7.98614 12.8889 7.95558V10.2222H3.11108ZM12.8889 11.5556V13.3334C12.8889 13.5778 12.6889 13.7778 12.4444 13.7778H3.55552C3.31108 13.7778 3.11108 13.5778 3.11108 13.3334V11.5556H12.8889Z" fill="#32343D"/>
</g>
<defs>
<clipPath id="clip0_159_7008">
<rect width="16" height="16" fill="white"/>
</clipPath>
</defs>
</svg>
