<svg width="12" height="14" viewBox="0 0 12 14" fill="none" xmlns="http://www.w3.org/2000/svg">
<path d="M6.54375 0.23125C6.4 0.0843751 6.20625 0 6 0C5.79375 0 5.6 0.0843751 5.45625 0.23125L0.206252 5.73125C-0.0812484 6.03125 -0.0687484 6.50625 0.231252 6.79063C0.531252 7.075 1.00625 7.06563 1.29063 6.76562L5.25 2.62188V13.25C5.25 13.6656 5.58438 14 6 14C6.41563 14 6.75 13.6656 6.75 13.25V2.62188L10.7063 6.76875C10.9938 7.06875 11.4656 7.07812 11.7656 6.79375C12.0656 6.50937 12.075 6.03438 11.7906 5.73438L6.54063 0.234375L6.54375 0.23125Z" fill="white"/>
</svg>
