<svg width="14" height="17" viewBox="0 0 14 17" fill="none" xmlns="http://www.w3.org/2000/svg">
<path d="M6.99997 0.5C6.44685 0.5 5.99997 0.946875 5.99997 1.5V2.05938C3.73435 2.41875 1.99997 4.38125 1.99997 6.75V7.79375C1.99997 9.2125 1.5156 10.5906 0.631223 11.6969L0.165598 12.2812C-0.0156524 12.5063 -0.0500274 12.8156 0.0749726 13.075C0.199973 13.3344 0.462473 13.5 0.749973 13.5H13.25C13.5375 13.5 13.8 13.3344 13.925 13.075C14.05 12.8156 14.0156 12.5063 13.8343 12.2812L13.3687 11.7C12.4843 10.5906 12 9.2125 12 7.79375V6.75C12 4.38125 10.2656 2.41875 7.99997 2.05938V1.5C7.99997 0.946875 7.5531 0.5 6.99997 0.5ZM6.99997 3.5H7.24997C9.04372 3.5 10.5 4.95625 10.5 6.75V7.79375C10.5 9.29062 10.9343 10.75 11.7406 12H2.25935C3.0656 10.75 3.49997 9.29062 3.49997 7.79375V6.75C3.49997 4.95625 4.95622 3.5 6.74997 3.5H6.99997ZM8.99997 14.5H6.99997H4.99997C4.99997 15.0312 5.20935 15.5406 5.58435 15.9156C5.95935 16.2906 6.46872 16.5 6.99997 16.5C7.53122 16.5 8.0406 16.2906 8.4156 15.9156C8.7906 15.5406 8.99997 15.0312 8.99997 14.5Z" fill="#32343D"/>
</svg>
