<svg width="20" height="20" viewBox="0 0 20 20" fill="none" xmlns="http://www.w3.org/2000/svg">
<path d="M3.4375 1.25C1.53906 1.25 0 2.78906 0 4.6875V15.3125C0 17.2109 1.53906 18.75 3.4375 18.75H16.5625C18.4609 18.75 20 17.2109 20 15.3125V8.4375C20 6.53906 18.4609 5 16.5625 5H4.6875C4.16797 5 3.75 5.41797 3.75 5.9375C3.75 6.45703 4.16797 6.875 4.6875 6.875H16.5625C17.4258 6.875 18.125 7.57422 18.125 8.4375V15.3125C18.125 16.1758 17.4258 16.875 16.5625 16.875H3.4375C2.57422 16.875 1.875 16.1758 1.875 15.3125V4.6875C1.875 3.82422 2.57422 3.125 3.4375 3.125H17.8125C18.332 3.125 18.75 2.70703 18.75 2.1875C18.75 1.66797 18.332 1.25 17.8125 1.25H3.4375ZM15 13.125C15.3315 13.125 15.6495 12.9933 15.8839 12.7589C16.1183 12.5245 16.25 12.2065 16.25 11.875C16.25 11.5435 16.1183 11.2255 15.8839 10.9911C15.6495 10.7567 15.3315 10.625 15 10.625C14.6685 10.625 14.3505 10.7567 14.1161 10.9911C13.8817 11.2255 13.75 11.5435 13.75 11.875C13.75 12.2065 13.8817 12.5245 14.1161 12.7589C14.3505 12.9933 14.6685 13.125 15 13.125Z" fill="#555764"/>
</svg>
