<svg width="10" height="10" viewBox="0 0 10 10" fill="none" xmlns="http://www.w3.org/2000/svg">
<path d="M9.78135 1.28125C10.0751 0.987498 10.0751 0.512498 9.78135 0.221873C9.4876 -0.0687516 9.0126 -0.0718766 8.72197 0.221873L5.00322 3.94062L1.28135 0.218748C0.987598 -0.0750015 0.512598 -0.0750015 0.221973 0.218748C-0.0686524 0.512498 -0.0717774 0.987498 0.221973 1.27812L3.94072 4.99687L0.218848 8.71875C-0.0749023 9.0125 -0.0749023 9.4875 0.218848 9.77812C0.512598 10.0687 0.987598 10.0719 1.27822 9.77812L4.99697 6.05937L8.71885 9.78125C9.0126 10.075 9.4876 10.075 9.77822 9.78125C10.0688 9.4875 10.072 9.0125 9.77822 8.72187L6.05947 5.00312L9.78135 1.28125Z" fill="#0F170F"/>
</svg>
